<svg id="Layer_1" data-name="Layer 1" xmlns="http://www.w3.org/2000/svg" viewBox="0 0 210.52 231.67"><title>education-college-school-seeklogo</title><path d="M235.47,241l8.27-20.43,16.9,6.08c14.57,2.88,16.63,14.35,19.84,22.26,3.94,3.26,6,6.3,6.56,9.18a12.2,12.2,0,0,1,8,3c3.07-.66,6.48-.3,10.59,2.14,4.55-.94,16.19.92,10.6,5.5-.62,1.17-2.5,2.11-5.2,2.9-5.79,2-12.74,4.87-18.51,6.43-3.48.94-6.24-.77-9.25-1.38a27.46,27.46,0,0,1-4.48-1.43,52.87,52.87,0,0,0-7.85-2.47c-6.28-1.29-5.35-6.56-8.39-9.63C254.28,255.24,263,244.41,235.47,241Z" transform="translate(-213.39 -100.28)" style="fill:none;stroke:#2e476e;stroke-linecap:round;stroke-linejoin:round;stroke-width:1.1364px;fill-rule:evenodd"/><path d="M295.16,268.43c2.76-.52,9.16-1.89,11.2-1.64,5.91.74,6.88,2.78,2.78,5.48m0,0c4.1-2.7,3.13-4.74-2.78-5.48" transform="translate(-213.39 -100.28)" style="fill:none;stroke:#2e476e;stroke-linecap:round;stroke-linejoin:round;stroke-width:1.1361px;fill-rule:evenodd"/><path d="M288.45,260.55c2.08.73,4.56.71,6,3.2,1-.62,4.33.29,7.49,1.09,2,.5,2.56,1,4.43.38,4.2-1.38,9.49.78,9.13,4.34.36-3.56-4.93-5.72-9.13-4.34" transform="translate(-213.39 -100.28)" style="fill:none;stroke:#2e476e;stroke-linecap:round;stroke-linejoin:round;stroke-width:1.1364px;fill-rule:evenodd"/><path d="M247.65,224.59l10.67,4.28c7.18.06,12.71,5.42,17.27,13.85,2.77,5,.23,9.53,8.31,14.91C295.5,264,298.64,273,292.4,273c-3.29,0-15.9-10.11-19.42-12.39-3.39-3.58-8.77-2.81-11.53-6.4" transform="translate(-213.39 -100.28)" style="fill:none;stroke:#2e476e;stroke-linecap:round;stroke-linejoin:round;stroke-width:1.1364px;fill-rule:evenodd"/><path d="M265.6,258.75a19.22,19.22,0,0,0,5.91.65" transform="translate(-213.39 -100.28)" style="fill:none;stroke:#2e476e;stroke-linecap:round;stroke-linejoin:round;stroke-width:1.1364px;fill-rule:evenodd"/><path d="M284.81,269.09a3,3,0,0,1,3.24-2.11c1.08.12,2.54,1.64,3.41,2.35a3.61,3.61,0,0,1,1.27,3.68" transform="translate(-213.39 -100.28)" style="fill:none;stroke:#2e476e;stroke-linecap:round;stroke-linejoin:round;stroke-width:1.1364px;fill-rule:evenodd"/><path d="M293.83,266c2.92-.16,5.07.34,6.48,1.49C298.9,266.3,296.75,265.8,293.83,266Z" transform="translate(-213.39 -100.28)" style="fill:none;stroke:#2e476e;stroke-linecap:round;stroke-linejoin:round;stroke-width:1.1364px;fill-rule:evenodd"/><rect x="224.39" y="221.88" width="24.98" height="13.58" transform="translate(-277.83 261.08) rotate(-67.76)" style="fill:none;stroke:#2e476e;stroke-linecap:round;stroke-linejoin:round;stroke-width:1.1364px"/><path d="M235.32,214.53l12.57,5.14-9.45,23.12-12.57-5.14Z" transform="translate(-213.39 -100.28)" style="fill:#fefefe;fill-rule:evenodd"/><polygon points="4.57 105.16 30.59 115.79 19.68 142.47 5.17 136.54 4.57 105.16" style="fill:none;stroke:#2e476e;stroke-linecap:round;stroke-linejoin:round;stroke-width:1.1364px;fill-rule:evenodd"/><path d="M218,205.43l26,10.63-10.91,26.69-14.51-5.93Z" transform="translate(-213.39 -100.28)" style="fill:#2e476e;fill-rule:evenodd"/><path d="M400.73,243.3,393,222.64,376,228.24c-14.64,2.47-17,13.88-20.45,21.7-4,3.14-6.17,6.13-6.82,9a12.18,12.18,0,0,0-8.13,2.76c-3-.76-6.46-.49-10.64,1.83-4.52-1.07-16.21.46-10.75,5.2.59,1.19,2.44,2.18,5.11,3,5.74,2.17,12.6,5.22,18.32,6.94,3.46,1.05,6.27-.59,9.3-1.12a26.76,26.76,0,0,0,4.52-1.3,53,53,0,0,1,7.91-2.25c6.31-1.11,5.53-6.4,8.66-9.38C381.53,257,373.15,246,400.73,243.3Z" transform="translate(-213.39 -100.28)" style="fill:none;stroke:#2e476e;stroke-linecap:round;stroke-linejoin:round;stroke-width:1.1364px;fill-rule:evenodd"/><path d="M340.29,269.06c-2.75-.59-9.11-2.14-11.15-1.95-5.93.58-7,2.59-2.93,5.4m0,0c-4-2.81-3-4.82,2.93-5.4" transform="translate(-213.39 -100.28)" style="fill:none;stroke:#2e476e;stroke-linecap:round;stroke-linejoin:round;stroke-width:1.1361px;fill-rule:evenodd"/><path d="M347.22,261.38c-2.1.67-4.58.58-6.1,3-1-.65-4.34.16-7.52.88-2,.44-2.6.91-4.44.25-4.16-1.5-9.52.51-9.26,4.08-.26-3.57,5.1-5.58,9.26-4.08" transform="translate(-213.39 -100.28)" style="fill:none;stroke:#2e476e;stroke-linecap:round;stroke-linejoin:round;stroke-width:1.1364px;fill-rule:evenodd"/><path d="M389,226.58l-10.79,4c-7.17-.14-12.84,5.06-17.64,13.36-2.91,4.89-.5,9.51-8.73,14.67-11.78,6-15.17,14.93-8.93,15.14,3.29.11,16.18-9.65,19.76-11.84,3.49-3.48,8.85-2.56,11.7-6.07" transform="translate(-213.39 -100.28)" style="fill:none;stroke:#2e476e;stroke-linecap:round;stroke-linejoin:round;stroke-width:1.1364px;fill-rule:evenodd"/><path d="M370.11,260.22a19,19,0,0,1-5.93.48" transform="translate(-213.39 -100.28)" style="fill:none;stroke:#2e476e;stroke-linecap:round;stroke-linejoin:round;stroke-width:1.1364px;fill-rule:evenodd"/><path d="M350.61,270a3,3,0,0,0-3.18-2.2c-1.08.09-2.58,1.57-3.47,2.25a3.6,3.6,0,0,0-1.37,3.64" transform="translate(-213.39 -100.28)" style="fill:none;stroke:#2e476e;stroke-linecap:round;stroke-linejoin:round;stroke-width:1.1364px;fill-rule:evenodd"/><path d="M341.69,266.64c-2.92-.25-5.08.19-6.52,1.3C336.61,266.83,338.77,266.39,341.69,266.64Z" transform="translate(-213.39 -100.28)" style="fill:none;stroke:#2e476e;stroke-linecap:round;stroke-linejoin:round;stroke-width:1.1364px;fill-rule:evenodd"/><rect x="392.88" y="218.47" width="13.58" height="24.98" transform="translate(-269.13 55.35) rotate(-20.63)" style="fill:none;stroke:#2e476e;stroke-linecap:round;stroke-linejoin:round;stroke-width:1.1364px"/><path d="M401.62,216.88l-12.71,4.78,8.8,23.38,12.71-4.79Z" transform="translate(-213.39 -100.28)" style="fill:#fefefe;fill-rule:evenodd"/><path d="M420,207.77l-27.08,10.39,10.16,27,14.67-5.52Z" transform="translate(-213.39 -100.28)" style="fill:#2e476e;fill-rule:evenodd"/><path d="M319.33,157.18h0l.22.14c11.12,7.1,23,7.89,34.32,1.16l14.15,12.41c-22.17,19.79,1.35,39.45-4,59.79-6.11,23.24-31.92,21.85-46.21,35.55l0,0v0l0,0,0,0c-13.89-14.1-39.73-13.44-45.19-36.84-4.78-20.48,19.29-39.47-2.31-59.88l14.49-12c11.11,7,23,6.6,34.34-.19l.22-.13Z" transform="translate(-213.39 -100.28)" style="fill:none;stroke:#2e476e;stroke-miterlimit:2.6131;stroke-width:1.9397000000000002px;fill-rule:evenodd"/><path d="M319.33,157.18h0l.22.14c11.12,7.1,23,7.89,34.32,1.16l14.15,12.41c-22.17,19.79,1.35,39.45-4,59.79-6.11,23.24-31.92,21.85-46.21,35.55l0,0v0l0,0,0,0c-13.89-14.1-39.73-13.44-45.19-36.84-4.78-20.48,19.29-39.47-2.31-59.88l14.49-12c11.11,7,23,6.6,34.34-.19l.22-.13Z" transform="translate(-213.39 -100.28)" style="fill:#fefefe;fill-rule:evenodd"/><path d="M319.27,161.21c-11.16,6.11-23,6.66-34.19.54l-9.7,8c4.86,5.53,7.67,11.88,7.5,19.65-.14,6.46-2.26,12.66-4.23,18.75-2.09,6.5-4.29,13.55-2.69,20.41a24.41,24.41,0,0,0,8.17,13.54c4.91,4.23,11.33,7,17.16,9.72s11.49,5.47,16.33,9.51l.25-.26.24.27.57-.44c4.86-3.69,10.45-6.21,16-8.61,11.52-5,22.46-9.19,26-22.54a22.4,22.4,0,0,0,.7-6.42c-.14-4.74-1.49-9.52-2.81-14.05-1.79-6.15-3.74-12.4-3.7-18.87.05-7.76,3-14,8.05-19.43l-9.46-8.3C342.12,168.52,330.27,167.63,319.27,161.21Z" transform="translate(-213.39 -100.28)" style="fill:none;stroke:#2e476e;stroke-linecap:round;stroke-miterlimit:2.6131;stroke-width:1.006px;fill-rule:evenodd"/><path d="M393.31,219.39A75.92,75.92,0,1,0,243.59,217" transform="translate(-213.39 -100.28)" style="fill:none;stroke:#2e476e;stroke-linecap:round;stroke-linejoin:round;stroke-width:1.5715000000000001px;fill-rule:evenodd"/><path d="M320.1,100.28a6,6,0,0,1,4.67,2.34,6,6,0,0,1,9.33,1,5.94,5.94,0,0,1,4-1.43,6,6,0,0,1,5.25,3.25,6,6,0,0,1,9,2.66,5.88,5.88,0,0,1,3.08-.8,6,6,0,0,1,5.65,4.26,6.08,6.08,0,0,1,2.59-.55,6,6,0,0,1,5.79,4.79,6,6,0,0,1,8,5,6,6,0,0,1,7.46,5.7,5.7,5.7,0,0,1,1-.07,6,6,0,0,1,5.9,6.07c0,.12,0,.24,0,.36a3.85,3.85,0,0,1,.48,0,6,6,0,0,1,5.9,6.07,5.26,5.26,0,0,1-.08.89,6,6,0,0,1,5.66,7.49,6,6,0,0,1,5,8,6,6,0,0,1,4.77,5.95,5.86,5.86,0,0,1-.56,2.44,6,6,0,0,1,4.24,5.81,5.83,5.83,0,0,1-.81,2.93,6,6,0,0,1,2.62,9,6,6,0,0,1,1.77,9.24,6,6,0,0,1,.91,9.34,6,6,0,0,1,.08,9.38,6,6,0,0,1-.76,9.35,6,6,0,0,1-1.6,9.26,6,6,0,0,1-2.45,9.07,5.9,5.9,0,0,1,.82,2.41L412,239.4a99.33,99.33,0,1,0-187.77-2.64l-5.65-.08a6,6,0,0,1,.89-2.39,6,6,0,0,1-2.2-9.14,6,6,0,0,1-1.33-9.3,6,6,0,0,1-.5-9.37,6,6,0,0,1,.34-9.37A6,6,0,0,1,217,187.8a6,6,0,0,1,2-9.18,6,6,0,0,1,2.87-9,5.87,5.87,0,0,1-.73-2.95,6,6,0,0,1,4.4-5.69,6.07,6.07,0,0,1-.49-2.46,6,6,0,0,1,4.94-5.81,6,6,0,0,1,5.18-7.83,6.15,6.15,0,0,1-.16-1.43,6,6,0,0,1,6-5.9,5.26,5.26,0,0,1-.05-.89,6,6,0,0,1,6.07-5.91,3.87,3.87,0,0,1,.48,0c0-.12,0-.24,0-.36a6,6,0,0,1,6.08-5.9,5.69,5.69,0,0,1,1,.1,6,6,0,0,1,6.06-5.72,6,6,0,0,1,1.55.22,6,6,0,0,1,8.1-4.77,6,6,0,0,1,8.49-4,6,6,0,0,1,8.82-3.21,6,6,0,0,1,9.08-2.4,6,6,0,0,1,9.26-1.56,6,6,0,0,1,9.35-.73A6,6,0,0,1,320.1,100.28Z" transform="translate(-213.39 -100.28)" style="fill:#2e476e;fill-rule:evenodd"/><path d="M349,308.25v-.62h.09c3.6.05,4.26-3.62,4.28-5.08.05-3.53-2.41-5.67-4.22-5.75v-.62a5.44,5.44,0,0,1,3.64,1.34,6.32,6.32,0,0,1,2.17,4.92,6,6,0,0,1-1.27,3.57,5.58,5.58,0,0,1-4.71,2.24Zm9-6.8c0,2.92-.1,4.78-.14,5.09-.09.8-.27,1-.75,1h-.55a.09.09,0,0,0-.1.1v.43c0,.08,0,.11.08.11l1.64,0c.44,0,1.42.07,1.59.08s.13,0,.13-.13v-.36c0-.1,0-.15-.12-.15h-.5c-.44,0-.53-.32-.59-1,0-.32-.12-3-.1-4.51l.05-3.64h.1c.1.14,3.06,4,3.23,4.12s1.27,1.63,2.4,3.07l2,2.54c.05.07.19.27.39.27s.08-.16.09-.39l.08-6.12c0-1.06,0-2.68.12-3.78,0-.62.21-.9.65-.89H368c.07,0,.1,0,.1-.12v-.41c0-.06,0-.11-.13-.11s-.61,0-1.59,0-1.57-.07-1.8-.07a.09.09,0,0,0-.1.1v.42q0,.12.09.12h.53a.87.87,0,0,1,.89.65,20.5,20.5,0,0,1,.16,2.52c0,.82,0,1.62,0,3.08l0,1.94h-.07c-.38-.53-3.1-3.95-3.28-4.18s-3.29-4.4-3.37-4.5a.56.56,0,0,0-.47-.22c-.2,0-.54,0-1.1,0s-.92,0-1.16-.05-.38,0-.46,0-.1,0-.1.1V297a.09.09,0,0,0,.09.12l.67,0c.59,0,1.07.57,1.06,1.53Zm-8.82-5.27v.62h-.07a3.11,3.11,0,0,0-2.6.92,5.86,5.86,0,0,0-1.69,4c-.06,4.22,2.78,5.8,4.21,5.89v.62h0a7.14,7.14,0,0,1-3.5-1.11,5.73,5.73,0,0,1-2.34-4.9,6.35,6.35,0,0,1,1.58-4.05,5.34,5.34,0,0,1,4.46-2Zm-24,11.51v-.61h.63c.1,0,.13.05.13.12v.41c0,.08-.05.11-.16.11s-.31,0-.59,0Zm.13-9.41c.28-.55.7-1.23,1.25-1.39a11.66,11.66,0,0,1,2.59-.16h.41l-.06,4.21c0,.31-.08,5.33-.13,5.81a.49.49,0,0,1-.55.38h-1.11c-.1,0-.12,0-.12.16v.31c0,.1,0,.16.14.17s.92,0,2.49,0,2.13.08,2.29.08.17,0,.17-.13v-.34c0-.11,0-.16-.16-.17h-1c-.39,0-.52-.25-.55-.66s.05-4.86.06-5.09l.06-4.67h.46a9.89,9.89,0,0,1,2.83.32c.53.27,1,1.54,1.13,1.85.05.11.07.13.13.11l.27-.06c.08,0,.11,0,.1-.13-.12-.72-.41-2.75-.44-3s-.06-.26-.14-.26a.33.33,0,0,0-.2.06l-.31.19a1.62,1.62,0,0,1-.86.22c-.8,0-1.5.08-3.29.05h-.78c-1.54,0-2.23-.1-3.09-.14a1.36,1.36,0,0,1-.93-.29l-.21-.15a.31.31,0,0,0-.2-.07c-.06,0-.13.05-.16.26l0,.09,0,2.43Zm13.25,3.87c0,.86-.11,4.4-.14,4.64-.07.43-.42.47-.75.47l-.91,0c-.08,0-.13,0-.13.1v.44c0,.07.05.1.13.1s.88,0,2.44,0,2.08.08,2.27.08.15,0,.15-.1v-.42c0-.08-.05-.12-.13-.12h-.67c-.53,0-.77-.09-.76-.6v-4.12l0-1.26c0-.2.11-3.81.11-4,0-.33.25-.45.58-.45h.77c.08,0,.13,0,.13-.11v-.41c0-.07,0-.11-.11-.12-.23,0-.75,0-2.21,0s-2.35-.08-2.55-.08-.12,0-.12.09v.45c0,.06,0,.09.13.1h.95c.62,0,.78.17.81.57,0,.24,0,3.19,0,3.58Zm-13.22-6.3,0,2.43a5.06,5.06,0,0,0-.23.49.12.12,0,0,1-.17.07l-.29-.08c-.05,0-.1,0-.06-.13.15-.54.66-2.32.78-2.78Zm-.16,11.23a1.22,1.22,0,0,1-1-.75c-.22-.48-1.24-3.54-1.6-4.82-.3-1.05-1.52-4.73-1.82-5.77-.05-.18-.08-.28-.18-.28s-.13.06-.21.15a3.29,3.29,0,0,1-.82.58l0,1.32c0-.07.08-.11.13-.11s.08.11.12.23,1.35,4.35,1.49,4.85l-1.81,0V303l2,0c.22.66.86,2.76,1,3.35s0,.62-.5.62h-.41c-.09,0-.14,0-.15.11v.38c0,.1.05.15.13.15.37,0,.95,0,2.31,0l1.37,0Zm-5.64-10.89,0,1.32-.06.13c-.08.21-1.7,4.38-1.82,4.78l1.81,0V303l-2,0c-.17.41-1.1,2.88-1.19,3.23a2.67,2.67,0,0,0-.05.35c0,.23.19.37.55.37h.77c.11,0,.16,0,.16.12v.38c0,.11-.06.14-.14.14-.23,0-.9-.06-1.86-.07-1.2,0-1.56,0-1.79,0-.08,0-.11,0-.11-.13V307c0-.08.06-.11.13-.11h.57c.49,0,.72-.22,1-.74.12-.26,1.36-3.27,1.85-4.6.12-.33,1.49-3.83,1.65-4.27a.68.68,0,0,0,0-.56.39.39,0,0,1-.11-.21c0-.05,0-.11.15-.15a2.11,2.11,0,0,0,.55-.21Zm-35.6,10.89v-.67a4.55,4.55,0,0,0,2.37-1.53,6,6,0,0,0,1.24-3.66,5.76,5.76,0,0,0-1.29-3.64,4.72,4.72,0,0,0-2.18-1.34v-.69a6.15,6.15,0,0,1,3.39,1.43,5.26,5.26,0,0,1,1.76,4.19,5.81,5.81,0,0,1-1.68,4.28,5.47,5.47,0,0,1-3.63,1.63Zm12,.42a4.34,4.34,0,0,0,3.09-.94,4.19,4.19,0,0,0,1.42-3.13c.06-.64.13-3.5.14-3.73s0-2.56.07-2.72.11-.65.71-.64H302c.08,0,.1-.07.1-.17v-.36c0-.05,0-.11-.16-.11s-.68,0-1.81,0-1.84-.07-2-.08-.11,0-.11.12v.39c0,.08,0,.13.11.13h.72a.73.73,0,0,1,.73.73c0,.41.06,1.36,0,2.6l0,3.51a4,4,0,0,1-.9,2.86,3.45,3.45,0,0,1-2.46.87,3,3,0,0,1-2.59-1.22,3.84,3.84,0,0,1-.49-2.08c0-.52-.05-2.6,0-3.47l0-1.08c0-.84,0-2,.06-2.13a.74.74,0,0,1,.8-.66h.82c.11,0,.13,0,.13-.11v-.42c0-.07,0-.1-.14-.1s-1,0-2.24,0-2.08-.08-2.25-.08-.14,0-.14.13V296c0,.12,0,.15.11.15H291c.51,0,.62.27.61.84l-.05,3.9a17.68,17.68,0,0,0,.2,4,3,3,0,0,0,1.92,2.22,6,6,0,0,0,2.2.37Zm12.83.18A5.85,5.85,0,0,0,313.6,305c0-.08,0-.11,0-.14l-.21-.17c-.05-.05-.08,0-.14.05a5,5,0,0,1-4.07,2,3.65,3.65,0,0,1-3.12-1.42,6.56,6.56,0,0,1-1.51-4.23c0-2.39,1.23-5,4.16-4.93a3.78,3.78,0,0,1,2.83,1.3,6.18,6.18,0,0,1,1.25,2c.05.13.08.14.16.13l.25-.06c.06,0,.08-.08.06-.17-.07-.46-.36-2.87-.36-3.18s0-.26-.18-.26-.18,0-.21.09l-.14.48c0,.11-.11.13-.33,0a6.79,6.79,0,0,0-3.29-.94,5.67,5.67,0,0,0-4.11,1.59,6.2,6.2,0,0,0-1.73,4.31,6.61,6.61,0,0,0,1.68,4.61A5.69,5.69,0,0,0,308.68,307.68Zm-39-11.84,2.91.11a2.55,2.55,0,0,1,1.24.45,14.19,14.19,0,0,1,1.61,1.89.1.1,0,0,0,.13,0l.24-.13c.07,0,.07-.08.06-.15s-.74-2.4-.8-2.63a.12.12,0,0,0-.13-.09c-.08,0-.39,0-.66,0-1.62,0-3.24,0-4.86-.06h-.72c-1.08,0-1.65-.07-2-.07-.08,0-.11,0-.11.08v.42c0,.1.05.12.13.12h.59c.6,0,.77.12.82.65,0,.16,0,2.21,0,3.57l0,1.6-.06,3.88c0,.6-.07.72-.82.7h-.66c-.11,0-.16,0-.16.08v.44c0,.08.05.11.15.11.29,0,.86,0,2.09,0,5.09.08,6.38.14,6.55.15a.36.36,0,0,0,.36-.24l.9-2.4c.05-.13.05-.18,0-.23l-.26-.15c-.1-.05-.15,0-.2.1a14.62,14.62,0,0,1-1.36,1.7,3.19,3.19,0,0,1-1.43.55c-.35,0-1.17,0-1.44,0a7.12,7.12,0,0,1-1.21-.13c-.51-.11-.91-.44-.92-1.29,0-.33,0-1.92,0-2.8v-1c.26,0,1.39,0,2.16.12a.77.77,0,0,1,.7.64c0,.18.14.56.17.78s0,.16.12.14l.37,0c.06,0,.09,0,.09-.13,0-.34-.08-1.13-.07-1.7,0-.25,0-1.58.08-1.86,0-.07,0-.13-.1-.13l-.41,0a.12.12,0,0,0-.12.12,3.79,3.79,0,0,1-.14.79c-.15.51-.28.64-.76.71-.2,0-1.95.07-2.08.07l.07-4.78Zm14.38-.29v.69a6.64,6.64,0,0,0-1.9-.29,3.48,3.48,0,0,0-1.31.15c-.24.14-.3.4-.33.76,0,.69-.05,2.83-.06,3.09v1.17c0,.21,0,3,0,4a1.58,1.58,0,0,0,.27.92,2.29,2.29,0,0,0,1.73.54,5.61,5.61,0,0,0,1.5-.18v.67c-.56.05-1.08,0-1.48,0-1,0-2.28-.08-3-.09-1.43,0-2.08,0-2.31,0-.08,0-.12,0-.12-.11v-.43c0-.06,0-.1.13-.1l1.1,0c.31,0,.49-.12.53-.39s.17-4,.19-5.3v-1.22c0-.43,0-2.75,0-3s-.26-.46-.7-.47h-.9c-.08,0-.13,0-.13-.12v-.44c0-.07.05-.08.11-.08s.93.06,2.41.08c.42,0,2.06,0,2.43,0A16.44,16.44,0,0,1,284.05,295.55Z" transform="translate(-213.39 -100.28)" style="fill-rule:evenodd"/><text transform="matrix(1, 0.01, -0.01, 1, 86.43, 227.15)" style="font-size:16.36240005493164px;font-family:ACaslon-RegularSC, ACaslon RegularSC">logo</text></svg>