<svg xmlns="http://www.w3.org/2000/svg" version="1.1" xmlns:xlink="http://www.w3.org/1999/xlink" xmlns:svgjs="http://svgjs.com/svgjs" width="1453" height="570" preserveAspectRatio="none" viewBox="0 0 1453 570"><g mask="url(&quot;#SvgjsMask2409&quot;)" fill="none"><rect width="1453" height="570" x="0" y="0" fill="url(#SvgjsLinearGradient2410)"></rect><path d="M-74.58 353.94L-74.58 353.94" stroke="rgba(15, 40, 91, 1)" stroke-width="1.5"></path><path d="M-74.58 353.94L79.45 490.21" stroke="rgba(15, 40, 91, 1)" stroke-width="1.5"></path><path d="M-74.58 353.94L-99.66 558.4" stroke="rgba(15, 40, 91, 1)" stroke-width="1.5"></path><path d="M-74.58 353.94L195.94 339.2" stroke="rgba(15, 40, 91, 1)" stroke-width="1.5"></path><path d="M-74.58 353.94L-88.64 658.01" stroke="rgba(15, 40, 91, 1)" stroke-width="1.5"></path><path d="M-99.66 558.4L-99.66 558.4" stroke="rgba(15, 40, 91, 1)" stroke-width="1.5"></path><path d="M-99.66 558.4L-88.64 658.01" stroke="rgba(15, 40, 91, 1)" stroke-width="1.5"></path><path d="M-99.66 558.4L79.45 490.21" stroke="rgba(15, 40, 91, 1)" stroke-width="1.5"></path><path d="M-88.64 658.01L-88.64 658.01" stroke="rgba(15, 40, 91, 1)" stroke-width="1.5"></path><path d="M-88.64 658.01L95.24 706.89" stroke="rgba(15, 40, 91, 1)" stroke-width="1.5"></path><path d="M-88.64 658.01L79.45 490.21" stroke="rgba(15, 40, 91, 1)" stroke-width="1.5"></path><path d="M-88.64 658.01L209.4 675.89" stroke="rgba(15, 40, 91, 1)" stroke-width="1.5"></path><path d="M-88.64 658.01L219.34 510.31" stroke="rgba(15, 40, 91, 1)" stroke-width="1.5"></path><path d="M79.45 490.21L79.45 490.21" stroke="rgba(15, 40, 91, 1)" stroke-width="1.5"></path><path d="M79.45 490.21L219.34 510.31" stroke="rgba(15, 40, 91, 1)" stroke-width="1.5"></path><path d="M79.45 490.21L195.94 339.2" stroke="rgba(15, 40, 91, 1)" stroke-width="1.5"></path><path d="M95.24 706.89L95.24 706.89" stroke="rgba(15, 40, 91, 1)" stroke-width="1.5"></path><path d="M95.24 706.89L209.4 675.89" stroke="rgba(15, 40, 91, 1)" stroke-width="1.5"></path><path d="M195.94 339.2L195.94 339.2" stroke="rgba(15, 40, 91, 1)" stroke-width="1.5"></path><path d="M195.94 339.2L219.34 510.31" stroke="rgba(15, 40, 91, 1)" stroke-width="1.5"></path><path d="M219.34 510.31L219.34 510.31" stroke="rgba(15, 40, 91, 1)" stroke-width="1.5"></path><path d="M219.34 510.31L358.27 538.42" stroke="rgba(15, 40, 91, 1)" stroke-width="1.5"></path><path d="M219.34 510.31L209.4 675.89" stroke="rgba(15, 40, 91, 1)" stroke-width="1.5"></path><path d="M209.4 675.89L209.4 675.89" stroke="rgba(15, 40, 91, 1)" stroke-width="1.5"></path><path d="M209.4 675.89L397.72 704.41" stroke="rgba(15, 40, 91, 1)" stroke-width="1.5"></path><path d="M209.4 675.89L358.27 538.42" stroke="rgba(15, 40, 91, 1)" stroke-width="1.5"></path><path d="M209.4 675.89L79.45 490.21" stroke="rgba(15, 40, 91, 1)" stroke-width="1.5"></path><path d="M209.4 675.89L505.27 685.77" stroke="rgba(15, 40, 91, 1)" stroke-width="1.5"></path><path d="M392.9 375.31L392.9 375.31" stroke="rgba(15, 40, 91, 1)" stroke-width="1.5"></path><path d="M392.9 375.31L514.19 403.59" stroke="rgba(15, 40, 91, 1)" stroke-width="1.5"></path><path d="M392.9 375.31L358.27 538.42" stroke="rgba(15, 40, 91, 1)" stroke-width="1.5"></path><path d="M358.27 538.42L358.27 538.42" stroke="rgba(15, 40, 91, 1)" stroke-width="1.5"></path><path d="M397.72 704.41L397.72 704.41" stroke="rgba(15, 40, 91, 1)" stroke-width="1.5"></path><path d="M397.72 704.41L505.27 685.77" stroke="rgba(15, 40, 91, 1)" stroke-width="1.5"></path><path d="M397.72 704.41L358.27 538.42" stroke="rgba(15, 40, 91, 1)" stroke-width="1.5"></path><path d="M514.19 403.59L514.19 403.59" stroke="rgba(15, 40, 91, 1)" stroke-width="1.5"></path><path d="M514.19 403.59L539.31 518.43" stroke="rgba(15, 40, 91, 1)" stroke-width="1.5"></path><path d="M514.19 403.59L644.32 355.14" stroke="rgba(15, 40, 91, 1)" stroke-width="1.5"></path><path d="M539.31 518.43L539.31 518.43" stroke="rgba(15, 40, 91, 1)" stroke-width="1.5"></path><path d="M539.31 518.43L640.49 537.18" stroke="rgba(15, 40, 91, 1)" stroke-width="1.5"></path><path d="M505.27 685.77L505.27 685.77" stroke="rgba(15, 40, 91, 1)" stroke-width="1.5"></path><path d="M505.27 685.77L539.31 518.43" stroke="rgba(15, 40, 91, 1)" stroke-width="1.5"></path><path d="M697.49 238.62L697.49 238.62" stroke="rgba(15, 40, 91, 1)" stroke-width="1.5"></path><path d="M697.49 238.62L644.32 355.14" stroke="rgba(15, 40, 91, 1)" stroke-width="1.5"></path><path d="M697.49 238.62L846.16 216.29" stroke="rgba(15, 40, 91, 1)" stroke-width="1.5"></path><path d="M697.49 238.62L862.21 360.79" stroke="rgba(15, 40, 91, 1)" stroke-width="1.5"></path><path d="M697.49 238.62L514.19 403.59" stroke="rgba(15, 40, 91, 1)" stroke-width="1.5"></path><path d="M697.49 238.62L941.32 111.93" stroke="rgba(15, 40, 91, 1)" stroke-width="1.5"></path><path d="M644.32 355.14L644.32 355.14" stroke="rgba(15, 40, 91, 1)" stroke-width="1.5"></path><path d="M644.32 355.14L640.49 537.18" stroke="rgba(15, 40, 91, 1)" stroke-width="1.5"></path><path d="M644.32 355.14L539.31 518.43" stroke="rgba(15, 40, 91, 1)" stroke-width="1.5"></path><path d="M644.32 355.14L862.21 360.79" stroke="rgba(15, 40, 91, 1)" stroke-width="1.5"></path><path d="M644.32 355.14L846.16 216.29" stroke="rgba(15, 40, 91, 1)" stroke-width="1.5"></path><path d="M640.49 537.18L640.49 537.18" stroke="rgba(15, 40, 91, 1)" stroke-width="1.5"></path><path d="M640.49 537.18L686.01 691.38" stroke="rgba(15, 40, 91, 1)" stroke-width="1.5"></path><path d="M686.01 691.38L686.01 691.38" stroke="rgba(15, 40, 91, 1)" stroke-width="1.5"></path><path d="M686.01 691.38L830.3 645.94" stroke="rgba(15, 40, 91, 1)" stroke-width="1.5"></path><path d="M686.01 691.38L505.27 685.77" stroke="rgba(15, 40, 91, 1)" stroke-width="1.5"></path><path d="M686.01 691.38L850.35 554.58" stroke="rgba(15, 40, 91, 1)" stroke-width="1.5"></path><path d="M686.01 691.38L539.31 518.43" stroke="rgba(15, 40, 91, 1)" stroke-width="1.5"></path><path d="M686.01 691.38L397.72 704.41" stroke="rgba(15, 40, 91, 1)" stroke-width="1.5"></path><path d="M846.16 216.29L846.16 216.29" stroke="rgba(15, 40, 91, 1)" stroke-width="1.5"></path><path d="M846.16 216.29L941.32 111.93" stroke="rgba(15, 40, 91, 1)" stroke-width="1.5"></path><path d="M846.16 216.29L862.21 360.79" stroke="rgba(15, 40, 91, 1)" stroke-width="1.5"></path><path d="M846.16 216.29L996.17 221.41" stroke="rgba(15, 40, 91, 1)" stroke-width="1.5"></path><path d="M846.16 216.29L985.56 375.79" stroke="rgba(15, 40, 91, 1)" stroke-width="1.5"></path><path d="M862.21 360.79L862.21 360.79" stroke="rgba(15, 40, 91, 1)" stroke-width="1.5"></path><path d="M862.21 360.79L985.56 375.79" stroke="rgba(15, 40, 91, 1)" stroke-width="1.5"></path><path d="M850.35 554.58L850.35 554.58" stroke="rgba(15, 40, 91, 1)" stroke-width="1.5"></path><path d="M850.35 554.58L830.3 645.94" stroke="rgba(15, 40, 91, 1)" stroke-width="1.5"></path><path d="M850.35 554.58L982.68 500.07" stroke="rgba(15, 40, 91, 1)" stroke-width="1.5"></path><path d="M830.3 645.94L830.3 645.94" stroke="rgba(15, 40, 91, 1)" stroke-width="1.5"></path><path d="M830.3 645.94L1011.67 687.9" stroke="rgba(15, 40, 91, 1)" stroke-width="1.5"></path><path d="M830.3 645.94L982.68 500.07" stroke="rgba(15, 40, 91, 1)" stroke-width="1.5"></path><path d="M830.3 645.94L640.49 537.18" stroke="rgba(15, 40, 91, 1)" stroke-width="1.5"></path><path d="M830.3 645.94L862.21 360.79" stroke="rgba(15, 40, 91, 1)" stroke-width="1.5"></path><path d="M976.51 -79.77L976.51 -79.77" stroke="rgba(15, 40, 91, 1)" stroke-width="1.5"></path><path d="M976.51 -79.77L941.32 111.93" stroke="rgba(15, 40, 91, 1)" stroke-width="1.5"></path><path d="M976.51 -79.77L1155.12 97.16" stroke="rgba(15, 40, 91, 1)" stroke-width="1.5"></path><path d="M976.51 -79.77L1256.61 -37.84" stroke="rgba(15, 40, 91, 1)" stroke-width="1.5"></path><path d="M941.32 111.93L941.32 111.93" stroke="rgba(15, 40, 91, 1)" stroke-width="1.5"></path><path d="M941.32 111.93L996.17 221.41" stroke="rgba(15, 40, 91, 1)" stroke-width="1.5"></path><path d="M941.32 111.93L1155.12 97.16" stroke="rgba(15, 40, 91, 1)" stroke-width="1.5"></path><path d="M941.32 111.93L1142.28 214.1" stroke="rgba(15, 40, 91, 1)" stroke-width="1.5"></path><path d="M996.17 221.41L996.17 221.41" stroke="rgba(15, 40, 91, 1)" stroke-width="1.5"></path><path d="M996.17 221.41L1142.28 214.1" stroke="rgba(15, 40, 91, 1)" stroke-width="1.5"></path><path d="M985.56 375.79L985.56 375.79" stroke="rgba(15, 40, 91, 1)" stroke-width="1.5"></path><path d="M985.56 375.79L982.68 500.07" stroke="rgba(15, 40, 91, 1)" stroke-width="1.5"></path><path d="M985.56 375.79L1124.55 376.98" stroke="rgba(15, 40, 91, 1)" stroke-width="1.5"></path><path d="M985.56 375.79L996.17 221.41" stroke="rgba(15, 40, 91, 1)" stroke-width="1.5"></path><path d="M982.68 500.07L982.68 500.07" stroke="rgba(15, 40, 91, 1)" stroke-width="1.5"></path><path d="M982.68 500.07L1147.19 488.51" stroke="rgba(15, 40, 91, 1)" stroke-width="1.5"></path><path d="M1011.67 687.9L1011.67 687.9" stroke="rgba(15, 40, 91, 1)" stroke-width="1.5"></path><path d="M1011.67 687.9L1147.76 658.08" stroke="rgba(15, 40, 91, 1)" stroke-width="1.5"></path><path d="M1011.67 687.9L982.68 500.07" stroke="rgba(15, 40, 91, 1)" stroke-width="1.5"></path><path d="M1155.12 97.16L1155.12 97.16" stroke="rgba(15, 40, 91, 1)" stroke-width="1.5"></path><path d="M1155.12 97.16L1269.81 88.17" stroke="rgba(15, 40, 91, 1)" stroke-width="1.5"></path><path d="M1155.12 97.16L1142.28 214.1" stroke="rgba(15, 40, 91, 1)" stroke-width="1.5"></path><path d="M1142.28 214.1L1142.28 214.1" stroke="rgba(15, 40, 91, 1)" stroke-width="1.5"></path><path d="M1142.28 214.1L1263.55 236.3" stroke="rgba(15, 40, 91, 1)" stroke-width="1.5"></path><path d="M1142.28 214.1L1124.55 376.98" stroke="rgba(15, 40, 91, 1)" stroke-width="1.5"></path><path d="M1142.28 214.1L1269.81 88.17" stroke="rgba(15, 40, 91, 1)" stroke-width="1.5"></path><path d="M1142.28 214.1L1287.14 368.9" stroke="rgba(15, 40, 91, 1)" stroke-width="1.5"></path><path d="M1124.55 376.98L1124.55 376.98" stroke="rgba(15, 40, 91, 1)" stroke-width="1.5"></path><path d="M1124.55 376.98L1147.19 488.51" stroke="rgba(15, 40, 91, 1)" stroke-width="1.5"></path><path d="M1124.55 376.98L1287.14 368.9" stroke="rgba(15, 40, 91, 1)" stroke-width="1.5"></path><path d="M1147.19 488.51L1147.19 488.51" stroke="rgba(15, 40, 91, 1)" stroke-width="1.5"></path><path d="M1147.19 488.51L1147.76 658.08" stroke="rgba(15, 40, 91, 1)" stroke-width="1.5"></path><path d="M1147.76 658.08L1147.76 658.08" stroke="rgba(15, 40, 91, 1)" stroke-width="1.5"></path><path d="M1147.76 658.08L1256.3 637.87" stroke="rgba(15, 40, 91, 1)" stroke-width="1.5"></path><path d="M1147.76 658.08L982.68 500.07" stroke="rgba(15, 40, 91, 1)" stroke-width="1.5"></path><path d="M1147.76 658.08L1124.55 376.98" stroke="rgba(15, 40, 91, 1)" stroke-width="1.5"></path><path d="M1256.61 -37.84L1256.61 -37.84" stroke="rgba(15, 40, 91, 1)" stroke-width="1.5"></path><path d="M1256.61 -37.84L1269.81 88.17" stroke="rgba(15, 40, 91, 1)" stroke-width="1.5"></path><path d="M1256.61 -37.84L1155.12 97.16" stroke="rgba(15, 40, 91, 1)" stroke-width="1.5"></path><path d="M1256.61 -37.84L1438.23 -95.53" stroke="rgba(15, 40, 91, 1)" stroke-width="1.5"></path><path d="M1256.61 -37.84L1438.2 89.31" stroke="rgba(15, 40, 91, 1)" stroke-width="1.5"></path><path d="M1256.61 -37.84L1263.55 236.3" stroke="rgba(15, 40, 91, 1)" stroke-width="1.5"></path><path d="M1256.61 -37.84L1142.28 214.1" stroke="rgba(15, 40, 91, 1)" stroke-width="1.5"></path><path d="M1269.81 88.17L1269.81 88.17" stroke="rgba(15, 40, 91, 1)" stroke-width="1.5"></path><path d="M1269.81 88.17L1263.55 236.3" stroke="rgba(15, 40, 91, 1)" stroke-width="1.5"></path><path d="M1269.81 88.17L1438.2 89.31" stroke="rgba(15, 40, 91, 1)" stroke-width="1.5"></path><path d="M1269.81 88.17L1397.33 222.42" stroke="rgba(15, 40, 91, 1)" stroke-width="1.5"></path><path d="M1263.55 236.3L1263.55 236.3" stroke="rgba(15, 40, 91, 1)" stroke-width="1.5"></path><path d="M1287.14 368.9L1287.14 368.9" stroke="rgba(15, 40, 91, 1)" stroke-width="1.5"></path><path d="M1287.14 368.9L1263.55 236.3" stroke="rgba(15, 40, 91, 1)" stroke-width="1.5"></path><path d="M1287.14 368.9L1431.49 358.98" stroke="rgba(15, 40, 91, 1)" stroke-width="1.5"></path><path d="M1287.14 368.9L1406.64 498.72" stroke="rgba(15, 40, 91, 1)" stroke-width="1.5"></path><path d="M1256.3 637.87L1256.3 637.87" stroke="rgba(15, 40, 91, 1)" stroke-width="1.5"></path><path d="M1256.3 637.87L1147.19 488.51" stroke="rgba(15, 40, 91, 1)" stroke-width="1.5"></path><path d="M1256.3 637.87L1454.35 687.04" stroke="rgba(15, 40, 91, 1)" stroke-width="1.5"></path><path d="M1256.3 637.87L1406.64 498.72" stroke="rgba(15, 40, 91, 1)" stroke-width="1.5"></path><path d="M1256.3 637.87L1011.67 687.9" stroke="rgba(15, 40, 91, 1)" stroke-width="1.5"></path><path d="M1438.23 -95.53L1438.23 -95.53" stroke="rgba(15, 40, 91, 1)" stroke-width="1.5"></path><path d="M1438.23 -95.53L1576.42 -45.28" stroke="rgba(15, 40, 91, 1)" stroke-width="1.5"></path><path d="M1438.23 -95.53L1438.2 89.31" stroke="rgba(15, 40, 91, 1)" stroke-width="1.5"></path><path d="M1438.23 -95.53L1554.65 104.89" stroke="rgba(15, 40, 91, 1)" stroke-width="1.5"></path><path d="M1438.2 89.31L1438.2 89.31" stroke="rgba(15, 40, 91, 1)" stroke-width="1.5"></path><path d="M1438.2 89.31L1554.65 104.89" stroke="rgba(15, 40, 91, 1)" stroke-width="1.5"></path><path d="M1438.2 89.31L1397.33 222.42" stroke="rgba(15, 40, 91, 1)" stroke-width="1.5"></path><path d="M1397.33 222.42L1397.33 222.42" stroke="rgba(15, 40, 91, 1)" stroke-width="1.5"></path><path d="M1397.33 222.42L1263.55 236.3" stroke="rgba(15, 40, 91, 1)" stroke-width="1.5"></path><path d="M1431.49 358.98L1431.49 358.98" stroke="rgba(15, 40, 91, 1)" stroke-width="1.5"></path><path d="M1431.49 358.98L1559.43 354.9" stroke="rgba(15, 40, 91, 1)" stroke-width="1.5"></path><path d="M1431.49 358.98L1397.33 222.42" stroke="rgba(15, 40, 91, 1)" stroke-width="1.5"></path><path d="M1406.64 498.72L1406.64 498.72" stroke="rgba(15, 40, 91, 1)" stroke-width="1.5"></path><path d="M1406.64 498.72L1431.49 358.98" stroke="rgba(15, 40, 91, 1)" stroke-width="1.5"></path><path d="M1406.64 498.72L1552.14 537.03" stroke="rgba(15, 40, 91, 1)" stroke-width="1.5"></path><path d="M1454.35 687.04L1454.35 687.04" stroke="rgba(15, 40, 91, 1)" stroke-width="1.5"></path><path d="M1454.35 687.04L1547.73 704.7" stroke="rgba(15, 40, 91, 1)" stroke-width="1.5"></path><path d="M1454.35 687.04L1552.14 537.03" stroke="rgba(15, 40, 91, 1)" stroke-width="1.5"></path><path d="M1454.35 687.04L1406.64 498.72" stroke="rgba(15, 40, 91, 1)" stroke-width="1.5"></path><path d="M1576.42 -45.28L1576.42 -45.28" stroke="rgba(15, 40, 91, 1)" stroke-width="1.5"></path><path d="M1576.42 -45.28L1554.65 104.89" stroke="rgba(15, 40, 91, 1)" stroke-width="1.5"></path><path d="M1576.42 -45.28L1438.2 89.31" stroke="rgba(15, 40, 91, 1)" stroke-width="1.5"></path><path d="M1576.42 -45.28L1553.17 198.72" stroke="rgba(15, 40, 91, 1)" stroke-width="1.5"></path><path d="M1554.65 104.89L1554.65 104.89" stroke="rgba(15, 40, 91, 1)" stroke-width="1.5"></path><path d="M1554.65 104.89L1553.17 198.72" stroke="rgba(15, 40, 91, 1)" stroke-width="1.5"></path><path d="M1553.17 198.72L1553.17 198.72" stroke="rgba(15, 40, 91, 1)" stroke-width="1.5"></path><path d="M1553.17 198.72L1559.43 354.9" stroke="rgba(15, 40, 91, 1)" stroke-width="1.5"></path><path d="M1559.43 354.9L1559.43 354.9" stroke="rgba(15, 40, 91, 1)" stroke-width="1.5"></path><path d="M1552.14 537.03L1552.14 537.03" stroke="rgba(15, 40, 91, 1)" stroke-width="1.5"></path><path d="M1552.14 537.03L1547.73 704.7" stroke="rgba(15, 40, 91, 1)" stroke-width="1.5"></path><path d="M1552.14 537.03L1559.43 354.9" stroke="rgba(15, 40, 91, 1)" stroke-width="1.5"></path><path d="M1552.14 537.03L1431.49 358.98" stroke="rgba(15, 40, 91, 1)" stroke-width="1.5"></path><path d="M1547.73 704.7L1547.73 704.7" stroke="rgba(15, 40, 91, 1)" stroke-width="1.5"></path><circle r="5" cx="-74.58" cy="353.94" fill="rgba(15, 40, 91, 1)"></circle><circle r="5" cx="-99.66" cy="558.4" fill="rgba(15, 40, 91, 1)"></circle><circle r="5" cx="-88.64" cy="658.01" fill="rgba(15, 40, 91, 1)"></circle><circle r="5" cx="79.45" cy="490.21" fill="rgba(15, 40, 91, 1)"></circle><circle r="5" cx="95.24" cy="706.89" fill="rgba(15, 40, 91, 1)"></circle><circle r="5" cx="195.94" cy="339.2" fill="rgba(15, 40, 91, 1)"></circle><circle r="5" cx="219.34" cy="510.31" fill="rgba(15, 40, 91, 1)"></circle><circle r="5" cx="209.4" cy="675.89" fill="rgba(15, 40, 91, 1)"></circle><circle r="5" cx="392.9" cy="375.31" fill="rgba(15, 40, 91, 1)"></circle><circle r="5" cx="358.27" cy="538.42" fill="rgba(15, 40, 91, 1)"></circle><circle r="5" cx="397.72" cy="704.41" fill="rgba(15, 40, 91, 1)"></circle><circle r="5" cx="514.19" cy="403.59" fill="rgba(15, 40, 91, 1)"></circle><circle r="5" cx="539.31" cy="518.43" fill="rgba(15, 40, 91, 1)"></circle><circle r="5" cx="505.27" cy="685.77" fill="rgba(15, 40, 91, 1)"></circle><circle r="5" cx="697.49" cy="238.62" fill="rgba(15, 40, 91, 1)"></circle><circle r="5" cx="644.32" cy="355.14" fill="rgba(15, 40, 91, 1)"></circle><circle r="5" cx="640.49" cy="537.18" fill="rgba(15, 40, 91, 1)"></circle><circle r="5" cx="686.01" cy="691.38" fill="rgba(15, 40, 91, 1)"></circle><circle r="5" cx="846.16" cy="216.29" fill="rgba(15, 40, 91, 1)"></circle><circle r="5" cx="862.21" cy="360.79" fill="rgba(15, 40, 91, 1)"></circle><circle r="5" cx="850.35" cy="554.58" fill="rgba(15, 40, 91, 1)"></circle><circle r="5" cx="830.3" cy="645.94" fill="rgba(15, 40, 91, 1)"></circle><circle r="5" cx="976.51" cy="-79.77" fill="rgba(15, 40, 91, 1)"></circle><circle r="5" cx="941.32" cy="111.93" fill="rgba(15, 40, 91, 1)"></circle><circle r="5" cx="996.17" cy="221.41" fill="rgba(15, 40, 91, 1)"></circle><circle r="5" cx="985.56" cy="375.79" fill="rgba(15, 40, 91, 1)"></circle><circle r="5" cx="982.68" cy="500.07" fill="rgba(15, 40, 91, 1)"></circle><circle r="5" cx="1011.67" cy="687.9" fill="rgba(15, 40, 91, 1)"></circle><circle r="5" cx="1155.12" cy="97.16" fill="rgba(15, 40, 91, 1)"></circle><circle r="5" cx="1142.28" cy="214.1" fill="rgba(15, 40, 91, 1)"></circle><circle r="5" cx="1124.55" cy="376.98" fill="rgba(15, 40, 91, 1)"></circle><circle r="5" cx="1147.19" cy="488.51" fill="rgba(15, 40, 91, 1)"></circle><circle r="5" cx="1147.76" cy="658.08" fill="rgba(15, 40, 91, 1)"></circle><circle r="5" cx="1256.61" cy="-37.84" fill="rgba(15, 40, 91, 1)"></circle><circle r="5" cx="1269.81" cy="88.17" fill="rgba(15, 40, 91, 1)"></circle><circle r="5" cx="1263.55" cy="236.3" fill="rgba(15, 40, 91, 1)"></circle><circle r="5" cx="1287.14" cy="368.9" fill="rgba(15, 40, 91, 1)"></circle><circle r="5" cx="1256.3" cy="637.87" fill="rgba(15, 40, 91, 1)"></circle><circle r="5" cx="1438.23" cy="-95.53" fill="rgba(15, 40, 91, 1)"></circle><circle r="5" cx="1438.2" cy="89.31" fill="rgba(15, 40, 91, 1)"></circle><circle r="5" cx="1397.33" cy="222.42" fill="rgba(15, 40, 91, 1)"></circle><circle r="5" cx="1431.49" cy="358.98" fill="rgba(15, 40, 91, 1)"></circle><circle r="5" cx="1406.64" cy="498.72" fill="rgba(15, 40, 91, 1)"></circle><circle r="5" cx="1454.35" cy="687.04" fill="rgba(15, 40, 91, 1)"></circle><circle r="5" cx="1576.42" cy="-45.28" fill="rgba(15, 40, 91, 1)"></circle><circle r="5" cx="1554.65" cy="104.89" fill="rgba(15, 40, 91, 1)"></circle><circle r="5" cx="1553.17" cy="198.72" fill="rgba(15, 40, 91, 1)"></circle><circle r="5" cx="1559.43" cy="354.9" fill="rgba(15, 40, 91, 1)"></circle><circle r="5" cx="1552.14" cy="537.03" fill="rgba(15, 40, 91, 1)"></circle><circle r="5" cx="1547.73" cy="704.7" fill="rgba(15, 40, 91, 1)"></circle><path d="M-52.58 674.49L-52.58 674.49" stroke="hsl(228.79999999999995, 80.3%, 64.7%)" stroke-width="1.5"></path><path d="M-52.58 674.49L-58.67 510.92" stroke="hsl(228.79999999999995, 80.3%, 64.7%)" stroke-width="1.5"></path><path d="M196.67 543.67L196.67 543.67" stroke="hsl(228.79999999999995, 80.3%, 64.7%)" stroke-width="1.5"></path><path d="M196.67 543.67L96.65 559.04" stroke="hsl(228.79999999999995, 80.3%, 64.7%)" stroke-width="1.5"></path><path d="M196.67 543.67L214.22 660.09" stroke="hsl(228.79999999999995, 80.3%, 64.7%)" stroke-width="1.5"></path><path d="M196.67 543.67L369.18 520.77" stroke="hsl(228.79999999999995, 80.3%, 64.7%)" stroke-width="1.5"></path><path d="M196.67 543.67L402.14 672.82" stroke="hsl(228.79999999999995, 80.3%, 64.7%)" stroke-width="1.5"></path><path d="M706.42 711.34L706.42 711.34" stroke="hsl(228.79999999999995, 80.3%, 64.7%)" stroke-width="1.5"></path><path d="M706.42 711.34L860.11 670.26" stroke="hsl(228.79999999999995, 80.3%, 64.7%)" stroke-width="1.5"></path><path d="M706.42 711.34L814.85 545.53" stroke="hsl(228.79999999999995, 80.3%, 64.7%)" stroke-width="1.5"></path><path d="M1279.09 382.59L1279.09 382.59" stroke="hsl(228.79999999999995, 80.3%, 64.7%)" stroke-width="1.5"></path><path d="M1279.09 382.59L1250.81 520.24" stroke="hsl(228.79999999999995, 80.3%, 64.7%)" stroke-width="1.5"></path><path d="M1279.09 382.59L1291.17 234.27" stroke="hsl(228.79999999999995, 80.3%, 64.7%)" stroke-width="1.5"></path><path d="M1279.09 382.59L1461.26 390.13" stroke="hsl(228.79999999999995, 80.3%, 64.7%)" stroke-width="1.5"></path><path d="M1279.09 382.59L1095.24 358.43" stroke="hsl(228.79999999999995, 80.3%, 64.7%)" stroke-width="1.5"></path><path d="M1457.38 -73.36L1457.38 -73.36" stroke="hsl(228.79999999999995, 80.3%, 64.7%)" stroke-width="1.5"></path><path d="M1457.38 -73.36L1601.01 -95.52" stroke="hsl(228.79999999999995, 80.3%, 64.7%)" stroke-width="1.5"></path><path d="M1457.38 -73.36L1459.82 73.66" stroke="hsl(228.79999999999995, 80.3%, 64.7%)" stroke-width="1.5"></path><path d="M1457.38 -73.36L1578.88 79.36" stroke="hsl(228.79999999999995, 80.3%, 64.7%)" stroke-width="1.5"></path><path d="M1457.38 -73.36L1254.73 -62.68" stroke="hsl(228.79999999999995, 80.3%, 64.7%)" stroke-width="1.5"></path><path d="M1457.38 -73.36L1302.9 66.38" stroke="hsl(228.79999999999995, 80.3%, 64.7%)" stroke-width="1.5"></path><path d="M1459.82 73.66L1459.82 73.66" stroke="hsl(228.79999999999995, 80.3%, 64.7%)" stroke-width="1.5"></path><path d="M1459.82 73.66L1578.88 79.36" stroke="hsl(228.79999999999995, 80.3%, 64.7%)" stroke-width="1.5"></path><path d="M1459.82 73.66L1302.9 66.38" stroke="hsl(228.79999999999995, 80.3%, 64.7%)" stroke-width="1.5"></path><path d="M1578.88 79.36L1578.88 79.36" stroke="hsl(228.79999999999995, 80.3%, 64.7%)" stroke-width="1.5"></path><path d="M1578.88 79.36L1601.01 -95.52" stroke="hsl(228.79999999999995, 80.3%, 64.7%)" stroke-width="1.5"></path><path d="M1578.88 79.36L1564.44 256.95" stroke="hsl(228.79999999999995, 80.3%, 64.7%)" stroke-width="1.5"></path><path d="M-58.67 510.92L-58.67 510.92" stroke="hsl(228.79999999999995, 80.3%, 64.7%)" stroke-width="1.5"></path><path d="M-58.67 510.92L96.65 559.04" stroke="hsl(228.79999999999995, 80.3%, 64.7%)" stroke-width="1.5"></path><path d="M-58.67 510.92L196.67 543.67" stroke="hsl(228.79999999999995, 80.3%, 64.7%)" stroke-width="1.5"></path><path d="M-58.67 510.92L214.22 660.09" stroke="hsl(228.79999999999995, 80.3%, 64.7%)" stroke-width="1.5"></path><path d="M96.65 559.04L96.65 559.04" stroke="hsl(228.79999999999995, 80.3%, 64.7%)" stroke-width="1.5"></path><path d="M96.65 559.04L214.22 660.09" stroke="hsl(228.79999999999995, 80.3%, 64.7%)" stroke-width="1.5"></path><path d="M96.65 559.04L-52.58 674.49" stroke="hsl(228.79999999999995, 80.3%, 64.7%)" stroke-width="1.5"></path><path d="M96.65 559.04L369.18 520.77" stroke="hsl(228.79999999999995, 80.3%, 64.7%)" stroke-width="1.5"></path><path d="M96.65 559.04L402.14 672.82" stroke="hsl(228.79999999999995, 80.3%, 64.7%)" stroke-width="1.5"></path><path d="M214.22 660.09L214.22 660.09" stroke="hsl(228.79999999999995, 80.3%, 64.7%)" stroke-width="1.5"></path><path d="M369.18 520.77L369.18 520.77" stroke="hsl(228.79999999999995, 80.3%, 64.7%)" stroke-width="1.5"></path><path d="M369.18 520.77L402.14 672.82" stroke="hsl(228.79999999999995, 80.3%, 64.7%)" stroke-width="1.5"></path><path d="M369.18 520.77L500.64 646.97" stroke="hsl(228.79999999999995, 80.3%, 64.7%)" stroke-width="1.5"></path><path d="M369.18 520.77L557.8 529.2" stroke="hsl(228.79999999999995, 80.3%, 64.7%)" stroke-width="1.5"></path><path d="M369.18 520.77L214.22 660.09" stroke="hsl(228.79999999999995, 80.3%, 64.7%)" stroke-width="1.5"></path><path d="M369.18 520.77L643.47 522.58" stroke="hsl(228.79999999999995, 80.3%, 64.7%)" stroke-width="1.5"></path><path d="M402.14 672.82L402.14 672.82" stroke="hsl(228.79999999999995, 80.3%, 64.7%)" stroke-width="1.5"></path><path d="M402.14 672.82L500.64 646.97" stroke="hsl(228.79999999999995, 80.3%, 64.7%)" stroke-width="1.5"></path><path d="M402.14 672.82L214.22 660.09" stroke="hsl(228.79999999999995, 80.3%, 64.7%)" stroke-width="1.5"></path><path d="M557.8 529.2L557.8 529.2" stroke="hsl(228.79999999999995, 80.3%, 64.7%)" stroke-width="1.5"></path><path d="M557.8 529.2L643.47 522.58" stroke="hsl(228.79999999999995, 80.3%, 64.7%)" stroke-width="1.5"></path><path d="M557.8 529.2L500.64 646.97" stroke="hsl(228.79999999999995, 80.3%, 64.7%)" stroke-width="1.5"></path><path d="M557.8 529.2L653.06 397.29" stroke="hsl(228.79999999999995, 80.3%, 64.7%)" stroke-width="1.5"></path><path d="M557.8 529.2L402.14 672.82" stroke="hsl(228.79999999999995, 80.3%, 64.7%)" stroke-width="1.5"></path><path d="M500.64 646.97L500.64 646.97" stroke="hsl(228.79999999999995, 80.3%, 64.7%)" stroke-width="1.5"></path><path d="M653.06 397.29L653.06 397.29" stroke="hsl(228.79999999999995, 80.3%, 64.7%)" stroke-width="1.5"></path><path d="M653.06 397.29L643.47 522.58" stroke="hsl(228.79999999999995, 80.3%, 64.7%)" stroke-width="1.5"></path><path d="M643.47 522.58L643.47 522.58" stroke="hsl(228.79999999999995, 80.3%, 64.7%)" stroke-width="1.5"></path><path d="M643.47 522.58L814.85 545.53" stroke="hsl(228.79999999999995, 80.3%, 64.7%)" stroke-width="1.5"></path><path d="M643.47 522.58L500.64 646.97" stroke="hsl(228.79999999999995, 80.3%, 64.7%)" stroke-width="1.5"></path><path d="M643.47 522.58L706.42 711.34" stroke="hsl(228.79999999999995, 80.3%, 64.7%)" stroke-width="1.5"></path><path d="M838.44 345.57L838.44 345.57" stroke="hsl(228.79999999999995, 80.3%, 64.7%)" stroke-width="1.5"></path><path d="M838.44 345.57L954.81 386.63" stroke="hsl(228.79999999999995, 80.3%, 64.7%)" stroke-width="1.5"></path><path d="M838.44 345.57L653.06 397.29" stroke="hsl(228.79999999999995, 80.3%, 64.7%)" stroke-width="1.5"></path><path d="M838.44 345.57L965.99 494.16" stroke="hsl(228.79999999999995, 80.3%, 64.7%)" stroke-width="1.5"></path><path d="M838.44 345.57L814.85 545.53" stroke="hsl(228.79999999999995, 80.3%, 64.7%)" stroke-width="1.5"></path><path d="M838.44 345.57L1095.24 358.43" stroke="hsl(228.79999999999995, 80.3%, 64.7%)" stroke-width="1.5"></path><path d="M838.44 345.57L643.47 522.58" stroke="hsl(228.79999999999995, 80.3%, 64.7%)" stroke-width="1.5"></path><path d="M814.85 545.53L814.85 545.53" stroke="hsl(228.79999999999995, 80.3%, 64.7%)" stroke-width="1.5"></path><path d="M814.85 545.53L860.11 670.26" stroke="hsl(228.79999999999995, 80.3%, 64.7%)" stroke-width="1.5"></path><path d="M814.85 545.53L965.99 494.16" stroke="hsl(228.79999999999995, 80.3%, 64.7%)" stroke-width="1.5"></path><path d="M860.11 670.26L860.11 670.26" stroke="hsl(228.79999999999995, 80.3%, 64.7%)" stroke-width="1.5"></path><path d="M860.11 670.26L968.4 661.15" stroke="hsl(228.79999999999995, 80.3%, 64.7%)" stroke-width="1.5"></path><path d="M954.81 386.63L954.81 386.63" stroke="hsl(228.79999999999995, 80.3%, 64.7%)" stroke-width="1.5"></path><path d="M954.81 386.63L965.99 494.16" stroke="hsl(228.79999999999995, 80.3%, 64.7%)" stroke-width="1.5"></path><path d="M954.81 386.63L1095.24 358.43" stroke="hsl(228.79999999999995, 80.3%, 64.7%)" stroke-width="1.5"></path><path d="M954.81 386.63L814.85 545.53" stroke="hsl(228.79999999999995, 80.3%, 64.7%)" stroke-width="1.5"></path><path d="M954.81 386.63L1099.22 228.63" stroke="hsl(228.79999999999995, 80.3%, 64.7%)" stroke-width="1.5"></path><path d="M954.81 386.63L968.4 661.15" stroke="hsl(228.79999999999995, 80.3%, 64.7%)" stroke-width="1.5"></path><path d="M965.99 494.16L965.99 494.16" stroke="hsl(228.79999999999995, 80.3%, 64.7%)" stroke-width="1.5"></path><path d="M965.99 494.16L968.4 661.15" stroke="hsl(228.79999999999995, 80.3%, 64.7%)" stroke-width="1.5"></path><path d="M968.4 661.15L968.4 661.15" stroke="hsl(228.79999999999995, 80.3%, 64.7%)" stroke-width="1.5"></path><path d="M968.4 661.15L1096.12 647.46" stroke="hsl(228.79999999999995, 80.3%, 64.7%)" stroke-width="1.5"></path><path d="M968.4 661.15L814.85 545.53" stroke="hsl(228.79999999999995, 80.3%, 64.7%)" stroke-width="1.5"></path><path d="M1099.22 228.63L1099.22 228.63" stroke="hsl(228.79999999999995, 80.3%, 64.7%)" stroke-width="1.5"></path><path d="M1099.22 228.63L1095.24 358.43" stroke="hsl(228.79999999999995, 80.3%, 64.7%)" stroke-width="1.5"></path><path d="M1099.22 228.63L1291.17 234.27" stroke="hsl(228.79999999999995, 80.3%, 64.7%)" stroke-width="1.5"></path><path d="M1095.24 358.43L1095.24 358.43" stroke="hsl(228.79999999999995, 80.3%, 64.7%)" stroke-width="1.5"></path><path d="M1095.24 358.43L965.99 494.16" stroke="hsl(228.79999999999995, 80.3%, 64.7%)" stroke-width="1.5"></path><path d="M1095.24 358.43L1250.81 520.24" stroke="hsl(228.79999999999995, 80.3%, 64.7%)" stroke-width="1.5"></path><path d="M1095.24 358.43L1291.17 234.27" stroke="hsl(228.79999999999995, 80.3%, 64.7%)" stroke-width="1.5"></path><path d="M1096.12 647.46L1096.12 647.46" stroke="hsl(228.79999999999995, 80.3%, 64.7%)" stroke-width="1.5"></path><path d="M1096.12 647.46L1250.81 520.24" stroke="hsl(228.79999999999995, 80.3%, 64.7%)" stroke-width="1.5"></path><path d="M1096.12 647.46L965.99 494.16" stroke="hsl(228.79999999999995, 80.3%, 64.7%)" stroke-width="1.5"></path><path d="M1096.12 647.46L860.11 670.26" stroke="hsl(228.79999999999995, 80.3%, 64.7%)" stroke-width="1.5"></path><path d="M1096.12 647.46L1095.24 358.43" stroke="hsl(228.79999999999995, 80.3%, 64.7%)" stroke-width="1.5"></path><path d="M1254.73 -62.68L1254.73 -62.68" stroke="hsl(228.79999999999995, 80.3%, 64.7%)" stroke-width="1.5"></path><path d="M1254.73 -62.68L1302.9 66.38" stroke="hsl(228.79999999999995, 80.3%, 64.7%)" stroke-width="1.5"></path><path d="M1254.73 -62.68L1459.82 73.66" stroke="hsl(228.79999999999995, 80.3%, 64.7%)" stroke-width="1.5"></path><path d="M1254.73 -62.68L1291.17 234.27" stroke="hsl(228.79999999999995, 80.3%, 64.7%)" stroke-width="1.5"></path><path d="M1254.73 -62.68L1099.22 228.63" stroke="hsl(228.79999999999995, 80.3%, 64.7%)" stroke-width="1.5"></path><path d="M1302.9 66.38L1302.9 66.38" stroke="hsl(228.79999999999995, 80.3%, 64.7%)" stroke-width="1.5"></path><path d="M1302.9 66.38L1291.17 234.27" stroke="hsl(228.79999999999995, 80.3%, 64.7%)" stroke-width="1.5"></path><path d="M1291.17 234.27L1291.17 234.27" stroke="hsl(228.79999999999995, 80.3%, 64.7%)" stroke-width="1.5"></path><path d="M1291.17 234.27L1462.23 258.62" stroke="hsl(228.79999999999995, 80.3%, 64.7%)" stroke-width="1.5"></path><path d="M1291.17 234.27L1461.26 390.13" stroke="hsl(228.79999999999995, 80.3%, 64.7%)" stroke-width="1.5"></path><path d="M1250.81 520.24L1250.81 520.24" stroke="hsl(228.79999999999995, 80.3%, 64.7%)" stroke-width="1.5"></path><path d="M1250.81 520.24L1430.27 533.57" stroke="hsl(228.79999999999995, 80.3%, 64.7%)" stroke-width="1.5"></path><path d="M1250.81 520.24L1393 644.19" stroke="hsl(228.79999999999995, 80.3%, 64.7%)" stroke-width="1.5"></path><path d="M1462.23 258.62L1462.23 258.62" stroke="hsl(228.79999999999995, 80.3%, 64.7%)" stroke-width="1.5"></path><path d="M1462.23 258.62L1564.44 256.95" stroke="hsl(228.79999999999995, 80.3%, 64.7%)" stroke-width="1.5"></path><path d="M1462.23 258.62L1461.26 390.13" stroke="hsl(228.79999999999995, 80.3%, 64.7%)" stroke-width="1.5"></path><path d="M1461.26 390.13L1461.26 390.13" stroke="hsl(228.79999999999995, 80.3%, 64.7%)" stroke-width="1.5"></path><path d="M1461.26 390.13L1569.54 404.59" stroke="hsl(228.79999999999995, 80.3%, 64.7%)" stroke-width="1.5"></path><path d="M1461.26 390.13L1430.27 533.57" stroke="hsl(228.79999999999995, 80.3%, 64.7%)" stroke-width="1.5"></path><path d="M1461.26 390.13L1564.44 256.95" stroke="hsl(228.79999999999995, 80.3%, 64.7%)" stroke-width="1.5"></path><path d="M1430.27 533.57L1430.27 533.57" stroke="hsl(228.79999999999995, 80.3%, 64.7%)" stroke-width="1.5"></path><path d="M1430.27 533.57L1393 644.19" stroke="hsl(228.79999999999995, 80.3%, 64.7%)" stroke-width="1.5"></path><path d="M1430.27 533.57L1550.57 562.25" stroke="hsl(228.79999999999995, 80.3%, 64.7%)" stroke-width="1.5"></path><path d="M1430.27 533.57L1569.54 404.59" stroke="hsl(228.79999999999995, 80.3%, 64.7%)" stroke-width="1.5"></path><path d="M1430.27 533.57L1540.83 694.91" stroke="hsl(228.79999999999995, 80.3%, 64.7%)" stroke-width="1.5"></path><path d="M1393 644.19L1393 644.19" stroke="hsl(228.79999999999995, 80.3%, 64.7%)" stroke-width="1.5"></path><path d="M1393 644.19L1540.83 694.91" stroke="hsl(228.79999999999995, 80.3%, 64.7%)" stroke-width="1.5"></path><path d="M1393 644.19L1550.57 562.25" stroke="hsl(228.79999999999995, 80.3%, 64.7%)" stroke-width="1.5"></path><path d="M1393 644.19L1461.26 390.13" stroke="hsl(228.79999999999995, 80.3%, 64.7%)" stroke-width="1.5"></path><path d="M1393 644.19L1279.09 382.59" stroke="hsl(228.79999999999995, 80.3%, 64.7%)" stroke-width="1.5"></path><path d="M1601.01 -95.52L1601.01 -95.52" stroke="hsl(228.79999999999995, 80.3%, 64.7%)" stroke-width="1.5"></path><path d="M1601.01 -95.52L1459.82 73.66" stroke="hsl(228.79999999999995, 80.3%, 64.7%)" stroke-width="1.5"></path><path d="M1601.01 -95.52L1302.9 66.38" stroke="hsl(228.79999999999995, 80.3%, 64.7%)" stroke-width="1.5"></path><path d="M1601.01 -95.52L1254.73 -62.68" stroke="hsl(228.79999999999995, 80.3%, 64.7%)" stroke-width="1.5"></path><path d="M1564.44 256.95L1564.44 256.95" stroke="hsl(228.79999999999995, 80.3%, 64.7%)" stroke-width="1.5"></path><path d="M1564.44 256.95L1569.54 404.59" stroke="hsl(228.79999999999995, 80.3%, 64.7%)" stroke-width="1.5"></path><path d="M1564.44 256.95L1459.82 73.66" stroke="hsl(228.79999999999995, 80.3%, 64.7%)" stroke-width="1.5"></path><path d="M1564.44 256.95L1291.17 234.27" stroke="hsl(228.79999999999995, 80.3%, 64.7%)" stroke-width="1.5"></path><path d="M1569.54 404.59L1569.54 404.59" stroke="hsl(228.79999999999995, 80.3%, 64.7%)" stroke-width="1.5"></path><path d="M1569.54 404.59L1550.57 562.25" stroke="hsl(228.79999999999995, 80.3%, 64.7%)" stroke-width="1.5"></path><path d="M1569.54 404.59L1462.23 258.62" stroke="hsl(228.79999999999995, 80.3%, 64.7%)" stroke-width="1.5"></path><path d="M1550.57 562.25L1550.57 562.25" stroke="hsl(228.79999999999995, 80.3%, 64.7%)" stroke-width="1.5"></path><path d="M1550.57 562.25L1540.83 694.91" stroke="hsl(228.79999999999995, 80.3%, 64.7%)" stroke-width="1.5"></path><path d="M1550.57 562.25L1461.26 390.13" stroke="hsl(228.79999999999995, 80.3%, 64.7%)" stroke-width="1.5"></path><path d="M1550.57 562.25L1250.81 520.24" stroke="hsl(228.79999999999995, 80.3%, 64.7%)" stroke-width="1.5"></path><path d="M1540.83 694.91L1540.83 694.91" stroke="hsl(228.79999999999995, 80.3%, 64.7%)" stroke-width="1.5"></path><path d="M1540.83 694.91L1569.54 404.59" stroke="hsl(228.79999999999995, 80.3%, 64.7%)" stroke-width="1.5"></path><path d="M1540.83 694.91L1461.26 390.13" stroke="hsl(228.79999999999995, 80.3%, 64.7%)" stroke-width="1.5"></path><circle r="25" cx="-52.58" cy="674.49" fill="url(#SvgjsRadialGradient2411)"></circle><circle r="25" cx="196.67" cy="543.67" fill="url(#SvgjsRadialGradient2411)"></circle><circle r="25" cx="706.42" cy="711.34" fill="url(#SvgjsRadialGradient2411)"></circle><circle r="25" cx="1279.09" cy="382.59" fill="url(#SvgjsRadialGradient2411)"></circle><circle r="25" cx="1457.38" cy="-73.36" fill="url(#SvgjsRadialGradient2411)"></circle><circle r="25" cx="1459.82" cy="73.66" fill="url(#SvgjsRadialGradient2411)"></circle><circle r="25" cx="1578.88" cy="79.36" fill="url(#SvgjsRadialGradient2411)"></circle><circle r="5" cx="-58.67" cy="510.92" fill="#8c9ff2"></circle><circle r="5" cx="96.65" cy="559.04" fill="#8c9ff2"></circle><circle r="5" cx="214.22" cy="660.09" fill="#8c9ff2"></circle><circle r="5" cx="369.18" cy="520.77" fill="#8c9ff2"></circle><circle r="5" cx="402.14" cy="672.82" fill="#8c9ff2"></circle><circle r="5" cx="557.8" cy="529.2" fill="#8c9ff2"></circle><circle r="5" cx="500.64" cy="646.97" fill="#8c9ff2"></circle><circle r="5" cx="653.06" cy="397.29" fill="#8c9ff2"></circle><circle r="5" cx="643.47" cy="522.58" fill="#8c9ff2"></circle><circle r="5" cx="838.44" cy="345.57" fill="#8c9ff2"></circle><circle r="5" cx="814.85" cy="545.53" fill="#8c9ff2"></circle><circle r="5" cx="860.11" cy="670.26" fill="#8c9ff2"></circle><circle r="5" cx="954.81" cy="386.63" fill="#8c9ff2"></circle><circle r="5" cx="965.99" cy="494.16" fill="#8c9ff2"></circle><circle r="5" cx="968.4" cy="661.15" fill="#8c9ff2"></circle><circle r="5" cx="1099.22" cy="228.63" fill="#8c9ff2"></circle><circle r="5" cx="1095.24" cy="358.43" fill="#8c9ff2"></circle><circle r="5" cx="1096.12" cy="647.46" fill="#8c9ff2"></circle><circle r="5" cx="1254.73" cy="-62.68" fill="#8c9ff2"></circle><circle r="5" cx="1302.9" cy="66.38" fill="#8c9ff2"></circle><circle r="5" cx="1291.17" cy="234.27" fill="#8c9ff2"></circle><circle r="5" cx="1250.81" cy="520.24" fill="#8c9ff2"></circle><circle r="5" cx="1462.23" cy="258.62" fill="#8c9ff2"></circle><circle r="5" cx="1461.26" cy="390.13" fill="#8c9ff2"></circle><circle r="5" cx="1430.27" cy="533.57" fill="#8c9ff2"></circle><circle r="5" cx="1393" cy="644.19" fill="#8c9ff2"></circle><circle r="5" cx="1601.01" cy="-95.52" fill="#8c9ff2"></circle><circle r="5" cx="1564.44" cy="256.95" fill="#8c9ff2"></circle><circle r="5" cx="1569.54" cy="404.59" fill="#8c9ff2"></circle><circle r="5" cx="1550.57" cy="562.25" fill="#8c9ff2"></circle><circle r="5" cx="1540.83" cy="694.91" fill="#8c9ff2"></circle></g><defs><mask id="SvgjsMask2409"><rect width="1453" height="570" fill="#ffffff"></rect></mask><linearGradient x1="15.19%" y1="-38.73%" x2="84.81%" y2="138.73%" gradientUnits="userSpaceOnUse" id="SvgjsLinearGradient2410"><stop stop-color="rgba(14, 42, 71, 1)" offset="0.56"></stop><stop stop-color="rgba(6, 2, 188, 1)" offset="1"></stop></linearGradient><radialGradient id="SvgjsRadialGradient2411"><stop stop-color="#ffffff" offset="0.1"></stop><stop stop-color="rgba(25, 63, 229, 1)" offset="0.2"></stop><stop stop-color="rgba(25, 63, 229, 0)" offset="1"></stop></radialGradient></defs></svg>